<svg width="21" height="21" viewBox="0 0 21 21" fill="none" xmlns="http://www.w3.org/2000/svg">
<g clip-path="url(#clip0)">
<path d="M15.2724 13.6387C14.619 12.9937 13.8032 12.9937 13.154 13.6387C12.6587 14.1298 12.1635 14.6209 11.6766 15.1203C11.5434 15.2577 11.431 15.2868 11.2687 15.1953C10.9482 15.0205 10.607 14.879 10.299 14.6875C8.86318 13.7844 7.66041 12.6233 6.59499 11.3164C6.06644 10.6672 5.59615 9.97218 5.26737 9.18976C5.20078 9.03161 5.21327 8.92756 5.34228 8.79855C5.83754 8.31994 6.32031 7.82885 6.80724 7.33775C7.48562 6.65522 7.48562 5.85615 6.80308 5.16945C6.41603 4.77824 6.02898 4.39535 5.64193 4.00414C5.2424 3.60461 4.84703 3.20091 4.44333 2.80554C3.78993 2.16878 2.97421 2.16878 2.32497 2.8097C1.82555 3.3008 1.34695 3.80437 0.839204 4.28714C0.36892 4.73246 0.131696 5.27766 0.0817548 5.91441C0.00268036 6.9507 0.256551 7.92873 0.614467 8.88178C1.34695 10.8545 2.46231 12.6066 3.8149 14.2131C5.64193 16.3855 7.82272 18.1044 10.3739 19.3446C11.5226 19.9023 12.7129 20.3309 14.0072 20.4017C14.8978 20.4516 15.6719 20.2269 16.292 19.5319C16.7165 19.0574 17.1951 18.6246 17.6446 18.1709C18.3105 17.4967 18.3146 16.681 17.6529 16.0151C16.8622 15.2202 16.0673 14.4295 15.2724 13.6387Z" fill="#4E4E4E"/>
</g>
<defs>
<clipPath id="clip0">
<rect width="20" height="20" fill="white" transform="translate(0.0670166 0.408325)"/>
</clipPath>
</defs>
</svg>
