<svg width="23" height="24" viewBox="0 0 23 24" fill="none" xmlns="http://www.w3.org/2000/svg">
<g opacity="0.6">
<path d="M10.5576 1.90894C6.04882 1.90894 2.3808 5.57695 2.3808 10.0858C2.3808 14.5948 6.04882 18.2626 10.5576 18.2626C15.0667 18.2626 18.7344 14.5948 18.7344 10.0858C18.7344 5.57696 15.0667 1.90894 10.5576 1.90894ZM10.5576 16.2992C7.13179 16.2992 4.34421 13.5116 4.34421 10.0858C4.34421 6.65997 7.1318 3.87235 10.5576 3.87235C13.9834 3.87235 16.771 6.65993 16.771 10.0858C16.771 13.5116 13.9834 16.2992 10.5576 16.2992Z" fill="white" stroke="white" stroke-width="0.5"/>
<path d="M16.3981 14.5379L20.5932 18.7329C20.5932 18.7329 20.5932 18.733 20.5932 18.733C20.9767 19.1162 20.9767 19.738 20.5932 20.1212L16.3981 14.5379ZM16.3981 14.5379C16.0146 14.1544 15.3935 14.1544 15.01 14.5378L16.3981 14.5379ZM15.0099 14.5378C15.0099 14.5378 15.0099 14.5378 15.0099 14.5379C14.6264 14.9211 14.6264 15.5428 15.0099 15.9261C15.0099 15.9261 15.01 15.9261 15.01 15.9261L19.205 20.1212C19.3967 20.3128 19.6481 20.4088 19.8991 20.4088C20.1498 20.4088 20.4015 20.3128 20.5932 20.1213L15.0099 14.5378Z" fill="white" stroke="white" stroke-width="0.5"/>
</g>
</svg>
