<svg width="23" height="24" viewBox="0 0 23 24" fill="none" xmlns="http://www.w3.org/2000/svg">
<g opacity="0.6">
<path d="M9.65265 1.88428C5.14385 1.88428 1.47583 5.5523 1.47583 10.0611C1.47583 14.5702 5.14385 18.2379 9.65265 18.2379C14.1617 18.2379 17.8295 14.5701 17.8295 10.0611C17.8295 5.5523 14.1617 1.88428 9.65265 1.88428ZM9.65265 16.2745C6.22683 16.2745 3.43924 13.487 3.43924 10.0611C3.43924 6.63531 6.22683 3.84769 9.65265 3.84769C13.0785 3.84769 15.8661 6.63527 15.8661 10.0611C15.8661 13.4869 13.0785 16.2745 9.65265 16.2745Z" fill="#4E4E4E" stroke="#4E4E4E" stroke-width="0.5"/>
<path d="M15.4931 14.5133L19.6882 18.7084C19.6882 18.7084 19.6882 18.7084 19.6883 18.7085C20.0718 19.0917 20.0718 19.7134 19.6883 20.0967L15.4931 14.5133ZM15.4931 14.5133C15.1097 14.1299 14.4885 14.1298 14.105 14.5132L15.4931 14.5133ZM14.105 14.5133C14.105 14.5133 14.1049 14.5133 14.1049 14.5133C13.7214 14.8966 13.7214 15.5183 14.1049 15.9015C14.105 15.9016 14.105 15.9016 14.105 15.9016L18.3001 20.0967C18.4917 20.2883 18.7432 20.3843 18.9942 20.3843C19.2449 20.3843 19.4965 20.2883 19.6882 20.0967L14.105 14.5133Z" fill="#4E4E4E" stroke="#4E4E4E" stroke-width="0.5"/>
</g>
</svg>
